<svg id="Eurotard_Dancewear_Logo_2021" data-name="Eurotard Dancewear Logo 2021" xmlns="http://www.w3.org/2000/svg" width="2009.32" height="743.28" viewBox="0 0 2009.32 743.28"><defs><style>.cls-1{fill:#fff;}</style></defs><path id="LogoType" class="cls-1" d="M154.59,550v5.81H103.7v39.07h42.35v5.67H103.7v40.3h50.89v5.81H96.66V550Zm72.2,91.67a30.67,30.67,0,0,0,12.46-2.42,26.74,26.74,0,0,0,9.33-6.73,29.54,29.54,0,0,0,5.84-10.15,38.44,38.44,0,0,0,2-12.6V550h7v59.77a43.14,43.14,0,0,1-2.53,14.93,35.7,35.7,0,0,1-7.27,12.09,33.59,33.59,0,0,1-11.54,8.09,41.13,41.13,0,0,1-30.54,0A33.5,33.5,0,0,1,200,636.75a35.72,35.72,0,0,1-7.28-12.09,43.38,43.38,0,0,1-2.53-14.93V550h7v59.7a38.54,38.54,0,0,0,2,12.61A30,30,0,0,0,205,632.41a26.82,26.82,0,0,0,9.29,6.76A30.23,30.23,0,0,0,226.79,641.63ZM314,602.9v43.72h-7V550h24.66q16.74,0,25,6.45t8.27,19A26.05,26.05,0,0,1,363,585.48a23.82,23.82,0,0,1-5.5,8,29.31,29.31,0,0,1-8.64,5.67,38.35,38.35,0,0,1-11.41,2.9,11.1,11.1,0,0,1,2.94,2.73l33.26,41.81h-6.08a4,4,0,0,1-1.87-.41,4.8,4.8,0,0,1-1.54-1.37l-31-39.21a6.83,6.83,0,0,0-2.49-2.12,10.63,10.63,0,0,0-4.13-.61Zm0-5.19h16.8a39.59,39.59,0,0,0,11.51-1.54,24.83,24.83,0,0,0,8.61-4.41,19,19,0,0,0,5.36-6.91,21.7,21.7,0,0,0,1.85-9.1q0-10.34-6.76-15.33t-19.68-5H314Zm174.12.54a58.47,58.47,0,0,1-3.35,20.33,45,45,0,0,1-9.42,15.57,41.78,41.78,0,0,1-14.55,10,51.54,51.54,0,0,1-37.44,0,41.78,41.78,0,0,1-14.55-10,45.52,45.52,0,0,1-9.46-15.57,62.59,62.59,0,0,1,0-40.58,45.52,45.52,0,0,1,9.46-15.57,42.15,42.15,0,0,1,14.55-10A47.75,47.75,0,0,1,442,548.87a48.64,48.64,0,0,1,18.79,3.51,41.75,41.75,0,0,1,14.55,10A45.44,45.44,0,0,1,484.72,578,58.21,58.21,0,0,1,488.07,598.25Zm-7.24,0a55.14,55.14,0,0,0-2.8-18.17,39.28,39.28,0,0,0-7.89-13.66,33.85,33.85,0,0,0-12.26-8.57,41.23,41.23,0,0,0-15.92-3,40.57,40.57,0,0,0-15.74,3,34.61,34.61,0,0,0-12.3,8.57,39,39,0,0,0-8,13.66,59.67,59.67,0,0,0,0,36.38,39,39,0,0,0,8,13.63,34.28,34.28,0,0,0,12.3,8.54A41.12,41.12,0,0,0,442,641.56a41.79,41.79,0,0,0,15.92-2.93,33.54,33.54,0,0,0,12.26-8.54A39.32,39.32,0,0,0,478,616.46,55,55,0,0,0,480.83,598.25ZM579.4,550v5.94H545.45v90.72h-7V555.9H504.33V550Zm95.29,96.66H669.3a2.4,2.4,0,0,1-1.58-.51,3.47,3.47,0,0,1-1-1.34L655.36,616.7H607.89l-11.34,28.07a3,3,0,0,1-1,1.3,2.52,2.52,0,0,1-1.64.55h-5.33L628.17,550h7ZM610,611.51h43.31l-19.74-48.85c-.32-.77-.64-1.64-1-2.63s-.64-2-1-3.1c-.32,1.09-.64,2.13-1,3.1s-.64,1.88-1,2.7Zm102.67-8.61v43.72h-7V550h24.66q16.74,0,25,6.45t8.27,19a26.05,26.05,0,0,1-1.91,10.11,23.82,23.82,0,0,1-5.5,8,29.31,29.31,0,0,1-8.64,5.67,38.35,38.35,0,0,1-11.41,2.9,11.1,11.1,0,0,1,2.94,2.73l33.26,41.81h-6.08a4,4,0,0,1-1.87-.41,4.8,4.8,0,0,1-1.54-1.37l-31-39.21a6.83,6.83,0,0,0-2.49-2.12,10.63,10.63,0,0,0-4.13-.61Zm0-5.19h16.8A39.59,39.59,0,0,0,741,596.17a24.83,24.83,0,0,0,8.61-4.41,19,19,0,0,0,5.36-6.91,21.7,21.7,0,0,0,1.85-9.1q0-10.34-6.76-15.33t-19.68-5H712.67Zm172.21.54a57.29,57.29,0,0,1-3.35,20.16,43.56,43.56,0,0,1-9.42,15.23,41,41,0,0,1-14.55,9.63,50.76,50.76,0,0,1-18.79,3.35H803.52V550h35.25a50.76,50.76,0,0,1,18.79,3.35,41,41,0,0,1,14.55,9.63,43.56,43.56,0,0,1,9.42,15.23A57,57,0,0,1,884.88,598.25Zm-7.24,0a54.13,54.13,0,0,0-2.8-18A38,38,0,0,0,867,566.83a33.52,33.52,0,0,0-12.26-8.33,42.6,42.6,0,0,0-15.92-2.87H810.56V641h28.21a42.6,42.6,0,0,0,15.92-2.87A33.52,33.52,0,0,0,867,629.75a38,38,0,0,0,7.89-13.39A54.4,54.4,0,0,0,877.64,598.25Zm164.76,0a57.29,57.29,0,0,1-3.35,20.16,43.56,43.56,0,0,1-9.42,15.23,41,41,0,0,1-14.55,9.63,50.76,50.76,0,0,1-18.79,3.35H961V550h35.25a50.76,50.76,0,0,1,18.79,3.35,41,41,0,0,1,14.55,9.63,43.56,43.56,0,0,1,9.42,15.23A57,57,0,0,1,1042.4,598.25Zm-7.24,0a53.87,53.87,0,0,0-2.8-18,38,38,0,0,0-7.89-13.39,33.52,33.52,0,0,0-12.26-8.33,42.57,42.57,0,0,0-15.92-2.87H968.08V641h28.21a42.57,42.57,0,0,0,15.92-2.87,33.52,33.52,0,0,0,12.26-8.33,38,38,0,0,0,7.89-13.39A54.15,54.15,0,0,0,1035.16,598.25Zm114.08,48.37h-5.4a2.37,2.37,0,0,1-1.57-.51,3.49,3.49,0,0,1-1-1.34l-11.4-28.07h-47.48l-11.34,28.07a2.83,2.83,0,0,1-1,1.3,2.49,2.49,0,0,1-1.63.55h-5.33L1102.72,550h7Zm-64.69-35.11h43.31l-19.75-48.85c-.31-.77-.63-1.64-.95-2.63s-.64-2-1-3.1c-.32,1.09-.64,2.13-1,3.1s-.64,1.88-1,2.7Zm98.57-61.31a3.22,3.22,0,0,1,1.16,1.06L1246.85,635a39,39,0,0,1-.21-4V550h6.15v96.66h-3.35a3,3,0,0,1-2.52-1.37l-62.85-83.88a38.09,38.09,0,0,1,.21,3.89v81.36h-6.08V550h3.41A3.87,3.87,0,0,1,1183.12,550.2Zm182.25,80.16a1.59,1.59,0,0,1,1.16.48l2.73,2.94a45,45,0,0,1-6.56,5.77,40.92,40.92,0,0,1-7.75,4.37,45.2,45.2,0,0,1-9.22,2.8,57.18,57.18,0,0,1-11,1,46.9,46.9,0,0,1-18.41-3.52,40.91,40.91,0,0,1-14.35-10,45.85,45.85,0,0,1-9.32-15.61,59,59,0,0,1-3.35-20.36,56.16,56.16,0,0,1,3.45-20.08,45.75,45.75,0,0,1,9.7-15.61,43.22,43.22,0,0,1,15-10.11,50,50,0,0,1,19.23-3.58,55.07,55.07,0,0,1,9.63.78,44.52,44.52,0,0,1,8.16,2.26,38.11,38.11,0,0,1,7.14,3.65,54.64,54.64,0,0,1,6.56,5.06l-2.12,3.07a1.89,1.89,0,0,1-1.71.82,2.9,2.9,0,0,1-1.57-.72c-.64-.48-1.44-1.07-2.42-1.77s-2.17-1.48-3.55-2.33a29.16,29.16,0,0,0-5-2.32,41.73,41.73,0,0,0-6.62-1.77,45.69,45.69,0,0,0-8.54-.72,42,42,0,0,0-16.19,3,36.35,36.35,0,0,0-12.71,8.67,39.67,39.67,0,0,0-8.3,13.66,51.64,51.64,0,0,0-3,18,53.16,53.16,0,0,0,2.94,18.31,39.53,39.53,0,0,0,8.13,13.63,35.27,35.27,0,0,0,12.26,8.54,39.17,39.17,0,0,0,15.34,3,56.82,56.82,0,0,0,9.25-.68,36.69,36.69,0,0,0,7.48-2,33.35,33.35,0,0,0,6.35-3.35A47.33,47.33,0,0,0,1364,631a4.39,4.39,0,0,1,.65-.44A1.47,1.47,0,0,1,1365.37,630.36Zm97.47-80.4v5.81H1412v39.07h42.36v5.67H1412v40.3h50.89v5.81h-57.92V550Zm23.3,0h5.8a2.39,2.39,0,0,1,2.53,1.84l24.39,79.45a30.21,30.21,0,0,1,.71,2.94c.21,1,.43,2.14.65,3.27.23-1.13.46-2.23.69-3.27a23.19,23.19,0,0,1,.82-2.94l27.32-79.45a2.85,2.85,0,0,1,1-1.29,2.5,2.5,0,0,1,1.64-.55h1.91a2.37,2.37,0,0,1,1.57.51,3.46,3.46,0,0,1,1,1.33l27.32,79.45c.32.91.6,1.87.85,2.87s.49,2.07.72,3.21c.23-1.09.43-2.15.62-3.18a26.24,26.24,0,0,1,.68-2.9l24.39-79.45a2.35,2.35,0,0,1,.92-1.29,2.64,2.64,0,0,1,1.67-.55h5.33l-30.4,96.66h-6.28l-28.56-83.89a35.07,35.07,0,0,1-.95-3.48q-.42,1.85-1,3.48l-28.62,83.89h-6.22Zm219.61,0v5.81h-50.89v39.07h42.35v5.67h-42.35v40.3h50.89v5.81h-57.92V550ZM1815,646.62h-5.4a2.37,2.37,0,0,1-1.57-.51,3.49,3.49,0,0,1-1-1.34l-11.4-28.07h-47.48l-11.34,28.07a2.83,2.83,0,0,1-1,1.3,2.49,2.49,0,0,1-1.63.55h-5.33L1768.46,550h7Zm-64.69-35.11h43.31l-19.74-48.85c-.32-.77-.64-1.64-1-2.63s-.64-2-1-3.1c-.32,1.09-.64,2.13-1,3.1s-.64,1.88-1,2.7ZM1853,602.9v43.72h-7V550h24.66q16.74,0,25,6.45t8.27,19a25.87,25.87,0,0,1-1.92,10.11,23.68,23.68,0,0,1-5.5,8,29.31,29.31,0,0,1-8.64,5.67,38.29,38.29,0,0,1-11.4,2.9,10.92,10.92,0,0,1,2.93,2.73l33.27,41.81h-6.08a4.07,4.07,0,0,1-1.88-.41,5,5,0,0,1-1.54-1.37l-30.94-39.21a6.91,6.91,0,0,0-2.49-2.12,10.66,10.66,0,0,0-4.14-.61Zm0-5.19h16.8a39.59,39.59,0,0,0,11.51-1.54,25,25,0,0,0,8.61-4.41,19.15,19.15,0,0,0,5.36-6.91,21.7,21.7,0,0,0,1.85-9.1q0-10.34-6.77-15.33t-19.67-5H1853Z"/><path id="LogoMark" class="cls-1" d="M1004.66,471.36a18.59,18.59,0,1,1,18.59-18.59A18.61,18.61,0,0,1,1004.66,471.36Zm0-34.18a15.59,15.59,0,1,0,15.59,15.59A15.6,15.6,0,0,0,1004.66,437.18Zm6.66,24.12h-2.47a1.15,1.15,0,0,1-1.07-.57l-4-5.74a1.28,1.28,0,0,0-.44-.43,1.45,1.45,0,0,0-.71-.13h-1.54v6.87h-2.77V444.24h5a10.74,10.74,0,0,1,2.9.34,5.66,5.66,0,0,1,2,1,3.87,3.87,0,0,1,1.15,1.52,5.06,5.06,0,0,1,.37,2,5,5,0,0,1-.26,1.66,4.9,4.9,0,0,1-.77,1.4,5,5,0,0,1-1.24,1.09,6.15,6.15,0,0,1-1.67.72,2.8,2.8,0,0,1,.88.87Zm-8-8.89a5.2,5.2,0,0,0,1.66-.23,3.47,3.47,0,0,0,1.19-.64,2.78,2.78,0,0,0,.71-1,3.47,3.47,0,0,0,.23-1.28,2.55,2.55,0,0,0-.92-2.13,4.46,4.46,0,0,0-2.8-.73h-2.25v6ZM977.81,110.28c-5.47-2.43-9.5-6.39-18.38-5-7.8.84-14.64,7.07-17.83,10.45l-.24.07c-.76.3-1.5.62-2.25.93l.24-.31a17.82,17.82,0,0,0,3.15-9.13c.25-3.14-.07-5.23.16-9.3.22-1.86-1.47-1.3-1.75-1.18-3.25,1.37-5.32,1.73-8.48,3.18a17.78,17.78,0,0,0-4.58,2.92,19.52,19.52,0,0,0-4.06,4.93c-3.17,4.9-4.09,9.66-2,16.63q-10.05,5-19.3,10.58a24.69,24.69,0,0,0,3.74-5.9,18.37,18.37,0,0,0,1.32-9.88c-.37-3.23-1.17-5.61-1.76-9.78.07-1.7-1.17-1-1.43-.82-1.51,1.07-2.45,1.48-4,2.4s-3.07,1.83-4.53,2.89a18.66,18.66,0,0,0-4,3.91,20.07,20.07,0,0,0-3.08,5.86c-2.33,6.05-2,11.35,2.46,18.69a214.72,214.72,0,0,0-18.11,14c.19-.32.39-.64.58-1a27.48,27.48,0,0,0,2.65-6.66,19,19,0,0,0-.52-10.07c-1-3.13-2.08-5.24-3.42-9.27-.35-1.87-1.59-.73-1.82-.5a14.88,14.88,0,0,1-1.35,1.17L867.16,132c-1.37,1.19-2.74,2.37-4,3.69a21.76,21.76,0,0,0-3.29,4.68,19.34,19.34,0,0,0-1.19,2.92,23.07,23.07,0,0,0-.74,3.51,17.85,17.85,0,0,0,.48,9.37,25.43,25.43,0,0,0,5.63,8.72,195.53,195.53,0,0,0-14.63,16c-.94,1.15-1.84,2.32-2.74,3.48.49-1.11,1-2.3,1.4-3.56a28.19,28.19,0,0,0,1.33-7.27,19.18,19.18,0,0,0-2.49-10.09c-1.58-3-3.09-4.71-5.22-8.53-.67-2.36-2-.54-2.15-.26-2.13,3.28-4.07,4.9-6,8.19a19.63,19.63,0,0,0-3.11,12.27c.12,6.91,2.69,12,10.34,17.39a182.19,182.19,0,0,0-14.53,25.1c.06-.16.12-.31.17-.48a36.7,36.7,0,0,0,1.51-6.23,29.77,29.77,0,0,0,.12-7.46,19.91,19.91,0,0,0-1.54-5.34,21.69,21.69,0,0,0-2.63-4.32c-2.07-2.71-3.64-4-6.39-7.46-1.39-2.57-2.22-.41-2.36-.11a15.18,15.18,0,0,1-.82,1.55c-.44.86-.9,1.7-1.36,2.54a47.15,47.15,0,0,0-2.58,5.12,22.71,22.71,0,0,0-1.53,5.79,20.66,20.66,0,0,0,.51,7,21.19,21.19,0,0,0,1.42,4.81,17.34,17.34,0,0,0,2.59,4.15c2.16,2.56,5.27,4.74,9.71,6.82a.22.22,0,0,0,.28-.06l.18-.31a179.86,179.86,0,0,0-9.72,29.11c0-.42.06-.85.07-1.3a31.81,31.81,0,0,0-.25-6.72,29.35,29.35,0,0,0-2-7.58,20.84,20.84,0,0,0-7-8.56c-2.87-2.16-5-3.13-8.82-5.85-1.95-2.11-2.15.36-2.21.72-.3,2.05-.61,2.76-1,4.72s-.88,3.92-1.13,5.93a22.3,22.3,0,0,0,.13,6.3,20.19,20.19,0,0,0,.85,3.36,25.16,25.16,0,0,0,1.66,3.58c3.24,6.64,8.19,10.36,18.26,12-.77,3.81-1.42,7.63-1.94,11.49a184.2,184.2,0,0,0-1.56,18.8c-.09-.87-.22-1.8-.4-2.8a34.42,34.42,0,0,0-1.79-6.72,29.08,29.08,0,0,0-3.76-7.16,21.2,21.2,0,0,0-8.93-7c-3.39-1.51-5.87-2-10.3-3.88-2.61-1.84-2,.92-2,1.29a38.82,38.82,0,0,1,0,4.94c0,2.06,0,4.13.24,6.2a21.72,21.72,0,0,0,5.64,12.68,20.4,20.4,0,0,0,8.41,6.46c3.36,1.32,7.45,1.79,12.71,1.49A196.25,196.25,0,0,0,811,325.81c-.27-.84-.57-1.74-.95-2.69a34.65,34.65,0,0,0-8.64-12.77,21.61,21.61,0,0,0-10.56-5.07c-3.74-.77-6.42-.72-11.26-1.61-3.13-1.18-1.69,1.58-1.59,1.95,1.31,4.19,1.28,6.82,2.71,10.89a22.34,22.34,0,0,0,8.41,11.5c6.17,4.9,12.43,6.33,22.84,3.49a210.64,210.64,0,0,0,8.28,31.24,37.34,37.34,0,0,0-2.51-4A43,43,0,0,0,813,353.1a32,32,0,0,0-3.2-2.7,29.11,29.11,0,0,0-3.7-2.41,22.74,22.74,0,0,0-11.81-2.5c-3.92.15-6.58.86-11.64,1.16-.37,0-3-.25-1.29,2,1.09,2,1.49,2.84,2.43,4.8a51.55,51.55,0,0,0,3.07,5.77,25.89,25.89,0,0,0,4.35,5.24,24.2,24.2,0,0,0,6.85,4.2,21.24,21.24,0,0,0,11,2.33c3.77-.26,7.84-1.61,12.67-4.23q2.94,7.95,6.52,15.77,3,6.45,6.33,12.74a43.44,43.44,0,0,0-3.58-3.84,36.2,36.2,0,0,0-6-4.75,30.64,30.64,0,0,0-8-3.8,23,23,0,0,0-12.38-.14c-3.92.95-7,2.33-12,3.67-2.57.41-.78,1.6-.52,1.9a52.71,52.71,0,0,1,3.52,4.54c1.37,1.76,2.73,3.52,4.26,5.16A23.94,23.94,0,0,0,813,405.24c8,2,14.69.74,23.49-6.51a248.61,248.61,0,0,0,19.41,29.54,44.43,44.43,0,0,0-12.8-9.32,34.26,34.26,0,0,0-4.14-1.61,30.4,30.4,0,0,0-4.56-1.14,23.52,23.52,0,0,0-12.66,1.64c-3.85,1.52-6.83,3.36-11.77,5.45-2.36.67-.56,1.69-.26,1.95,1.75,1.56,2.72,2.52,4.32,4.14a53,53,0,0,0,5,4.65,27.19,27.19,0,0,0,6.13,3.71,25.2,25.2,0,0,0,8.27,1.85,22.6,22.6,0,0,0,11.8-1.37c3.77-1.55,7.45-4.32,11.48-8.68a.22.22,0,0,0,0-.11,268.94,268.94,0,0,0,21.79,24.87c-4.14-2.94-12-7.52-21.73-7.73a23.85,23.85,0,0,0-12.61,3.52c-3.7,2.14-6.21,4.38-10.93,7.27-.34.2-2.72,1,.2,2.3,4.13,2.51,6.25,4.93,10.38,7.28a25.74,25.74,0,0,0,6.76,2.87,27,27,0,0,0,8.66.69c8.7-.21,15.24-3.49,22.13-13.36A288.24,288.24,0,0,0,906,478.61c-4.79-2.26-13.44-5.38-23.14-3.88-10.34,1.76-13.37,7.43-21.83,15-.3.26-3,1.48.41,2.36a47.61,47.61,0,0,1,5.37,2.6,68.06,68.06,0,0,0,6.57,2.94,25.79,25.79,0,0,0,16.2.87c8.72-1.73,14.75-6.12,20-17.15l.18.14a1.65,1.65,0,0,0,.46.23c3.48,5.94,7.6,13.34,17.35,16.81,12.42,4.63,25.22-.1,27-.79a.21.21,0,0,0,.11-.28c-.84-1.75-7.56-15-20-19.62-7.44-3-13.45-.88-21.94.85,10.13-4,14.62-9.28,17.11-17.33a27.09,27.09,0,0,0,1.66-8.79,25.37,25.37,0,0,0-1-7.52,66,66,0,0,0-2.35-6.86,52.58,52.58,0,0,1-2.17-5.92c-.66-2.72-1.86-.59-2.15-.31-4.13,3.9-7,5.73-10.15,8.82a24.49,24.49,0,0,0-6.9,11.54,34.29,34.29,0,0,0-1,9.6,43.32,43.32,0,0,0,1,8.29,53.85,53.85,0,0,0,2,6.78,283.4,283.4,0,0,1-25.07-21.82c5.25-1.41,9.19-3.23,12.22-5.65a23.49,23.49,0,0,0,7.07-10,25.34,25.34,0,0,0,2-15.8c-.43-2.34-1.07-4.6-1.71-6.87a49.8,49.8,0,0,1-1.65-5.91c-.46-3.13-2-.55-2.36-.31-4.32,3.46-7,4.8-10.26,7.54a24,24,0,0,0-7.64,10.62,33,33,0,0,0-1.78,9.21,39.22,39.22,0,0,0,.29,8.1,44.29,44.29,0,0,0,1.3,6.58A267.88,267.88,0,0,1,859.4,428c5.48-.89,9.62-2.31,12.86-4.44a22.5,22.5,0,0,0,7.77-9,24.83,24.83,0,0,0,3.06-7.94,27.29,27.29,0,0,0,.32-7.23c-.46-4.62-1.55-7.77-2.17-12.45-.1-2.87-1.83-1.08-2.15-.87-4.47,3-7.32,4.18-10.72,6.56a23.79,23.79,0,0,0-8.32,9.66,37.79,37.79,0,0,0-3,16.59,43.14,43.14,0,0,0,.61,6c.06.42.13.81.19,1.16a244.86,244.86,0,0,1-18.69-28.5c5.22-.28,9.28-1.19,12.59-2.86a22.22,22.22,0,0,0,8.48-7.87,24.23,24.23,0,0,0,3.78-7.36,23.78,23.78,0,0,0,1.06-7c.12-4.57-.73-7.3-.79-11.94.16-3.28-2-1.5-2.3-1.33-4.62,2.44-7.19,3.18-10.73,5.14a23,23,0,0,0-9,8.5,36.6,36.6,0,0,0-4.62,15.68,46,46,0,0,0-.08,6q-3.53-6.52-6.6-13.22-3.51-7.68-6.4-15.49c10.43.53,16.29-2.18,21.3-8.23a24.33,24.33,0,0,0,4.41-6.76,25.78,25.78,0,0,0,1.69-6.66c.49-4.41.08-7.35.38-11.85.67-2.77-1.36-1.63-1.69-1.49-4.71,1.94-7.72,2.56-11.32,4.13a22.84,22.84,0,0,0-9.55,7.35,34,34,0,0,0-4,7.57,43.54,43.54,0,0,0-2,7.1c-.32,1.86-.51,3.54-.61,4.93A207.6,207.6,0,0,1,815,331.12a29.06,29.06,0,0,0,11.75,0,20.34,20.34,0,0,0,9.5-5.43,22.22,22.22,0,0,0,7.48-12.27c.48-2.11.76-4.22,1-6.35a36.87,36.87,0,0,1,.58-4.81c1.29-3.49-1.45-1.94-1.79-1.85-4.77,1.35-7.32,1.54-11,2.65a22,22,0,0,0-10,6,30.83,30.83,0,0,0-4.77,6.82,37.75,37.75,0,0,0-2.74,6.58,35,35,0,0,0-.93,3.46,195,195,0,0,1-2.39-30.48A28.39,28.39,0,0,0,823.06,297a18.23,18.23,0,0,0,5.13-1.29A23.29,23.29,0,0,0,832.9,293a24.24,24.24,0,0,0,3.23-2.47,20.54,20.54,0,0,0,2.41-2.68,22.27,22.27,0,0,0,3.12-5.74,54.4,54.4,0,0,0,1.8-6,40,40,0,0,1,1.26-4.57c1.28-2.66-1.61-2-2-1.95-4.73.73-6.87.52-10.53,1.15a21.26,21.26,0,0,0-10.42,4.55,29.43,29.43,0,0,0-5.45,5.95,34.15,34.15,0,0,0-3.46,6c-.44.9-.8,1.75-1.11,2.55a182.14,182.14,0,0,1,1.53-18.55c.5-3.7,1.13-7.38,1.86-11,8.5,4.06,14.47,3.9,20.74.52a20.56,20.56,0,0,0,6.11-4.21,23.33,23.33,0,0,0,2.13-2.48,25.12,25.12,0,0,0,1.64-2.64c2-3.6,2.41-6,4.24-9.72,1.64-2.52-.9-2.22-1.23-2.21-4.65.08-7-.39-10.56-.27a20.84,20.84,0,0,0-10.64,3,30.28,30.28,0,0,0-6,5,34.1,34.1,0,0,0-4.12,5.27c-.33.5-.63,1-.91,1.45A177.12,177.12,0,0,1,826,225.47a26.86,26.86,0,0,0,9.86,4.32,18.93,18.93,0,0,0,10.05-1.09,20.65,20.65,0,0,0,6.49-3.25A20.33,20.33,0,0,0,856.7,221c.6-.8,1.16-1.63,1.71-2.47s1-1.71,1.49-2.57c1-1.74,1.06-1.88,2.16-3.6,2-2.36-.55-2.48-.88-2.52-4.52-.55-6.64-1.34-10.14-1.71a20.7,20.7,0,0,0-10.73,1.47,32.61,32.61,0,0,0-10.82,8.09,178.69,178.69,0,0,1,13.65-23.42c6.8,5.91,12.27,7.21,19,5.78a21.54,21.54,0,0,0,6.74-2.28,22.28,22.28,0,0,0,4.81-3.73,46.91,46.91,0,0,0,3.78-4.46c1.22-1.53,1.13-1.57,2.46-3.08,2.51-1.95-.1-2.64-.41-2.72-4.33-1.16-6.26-2.17-9.61-3a20.46,20.46,0,0,0-10.61,0,26.92,26.92,0,0,0-3.64,1.36,30.74,30.74,0,0,0-3.24,1.67,28.88,28.88,0,0,0-2.79,1.89l-.4.3c.84-1.07,1.66-2.15,2.52-3.21a192.86,192.86,0,0,1,14.2-15.57c5.72,6.34,10.79,8.23,17.22,7.63a22.73,22.73,0,0,0,3.57-.41,19.63,19.63,0,0,0,3-.94,19.29,19.29,0,0,0,5-2.91,53.61,53.61,0,0,0,4.11-3.7,30.32,30.32,0,0,1,2.94-2.82c2.12-1.37.28-2.11,0-2.22-3.93-1.65-5.94-3-9-4.19a18.83,18.83,0,0,0-10-1.32,25.23,25.23,0,0,0-6.87,2c-.31.13-.61.28-.92.42A208.13,208.13,0,0,1,892.81,145a24.16,24.16,0,0,0,7,6.84,17.13,17.13,0,0,0,8.82,2.3,19.07,19.07,0,0,0,6.5-.57,21.05,21.05,0,0,0,5.08-2.24,47.71,47.71,0,0,0,4.32-3.1l2.13-1.63a13.36,13.36,0,0,1,1.33-1c1.88-1,.36-1.66.11-1.8-3.58-2-5.55-3.63-8.34-5.14a18.45,18.45,0,0,0-9.46-2.42,25.83,25.83,0,0,0-5.22.77q8.55-5.15,17.77-9.71a23.07,23.07,0,0,0,6.18,6.88,15.57,15.57,0,0,0,3.93,2,19.9,19.9,0,0,0,4.42.88,18.84,18.84,0,0,0,6.3-.06,20.08,20.08,0,0,0,5-1.75,41.24,41.24,0,0,0,4.4-2.63c1.42-.93,1.82-1.2,3.35-2.08,1.54-.56.66-1.61.43-1.77-3.28-2.26-5-4-7.6-5.72a17.76,17.76,0,0,0-8.94-3.12h-1.09c1.05-.43,2.09-.88,3.16-1.3l.24-.13c6.54,1.44,11.25,3.76,19.17,3,7.12-.87,10.29-5,16.13-9.74A.9.9,0,0,0,977.81,110.28ZM1220.16,328a22.31,22.31,0,0,0,8.42-11.5c1.43-4.07,1.4-6.7,2.71-10.89.1-.37,1.54-3.13-1.59-1.95-4.84.89-7.52.84-11.26,1.61a21.61,21.61,0,0,0-10.56,5.07,34.65,34.65,0,0,0-8.64,12.77c-.38.95-.68,1.85-1,2.69a196.25,196.25,0,0,0,2.34-30.69c5.26.3,9.35-.17,12.71-1.49a20.4,20.4,0,0,0,8.41-6.46,21.65,21.65,0,0,0,4.08-6.39,21.4,21.4,0,0,0,1.56-6.29c.2-2.07.24-4.14.24-6.2a38.82,38.82,0,0,1,0-4.94c0-.37.66-3.13-2-1.29-4.43,1.87-6.91,2.37-10.3,3.88a21.2,21.2,0,0,0-8.93,7,28.75,28.75,0,0,0-3.76,7.16,34.42,34.42,0,0,0-1.79,6.72c-.18,1-.31,1.94-.4,2.8a187.09,187.09,0,0,0-1.56-18.8c-.52-3.86-1.17-7.68-1.94-11.49,10.07-1.64,15-5.36,18.26-12a24,24,0,0,0,1.65-3.58,19.31,19.31,0,0,0,.86-3.36,22.3,22.3,0,0,0,.13-6.3c-.25-2-.69-4-1.13-5.93s-.74-2.67-1-4.72c0-.36-.25-2.83-2.2-.72-3.78,2.72-6,3.69-8.83,5.85a20.9,20.9,0,0,0-7,8.56,29,29,0,0,0-2,7.58,31.81,31.81,0,0,0-.25,6.72c0,.45,0,.88.07,1.3a180.84,180.84,0,0,0-9.72-29.11l.18.31a.21.21,0,0,0,.28.06c4.44-2.08,7.55-4.26,9.71-6.82a17.34,17.34,0,0,0,2.59-4.15,21.18,21.18,0,0,0,1.41-4.81,20.17,20.17,0,0,0,.51-7,22.3,22.3,0,0,0-1.52-5.79,49,49,0,0,0-2.58-5.12c-.46-.84-.92-1.68-1.36-2.54a15.18,15.18,0,0,1-.82-1.55c-.14-.3-1-2.46-2.36.11-2.76,3.47-4.32,4.75-6.39,7.46a21.69,21.69,0,0,0-2.63,4.32,19.91,19.91,0,0,0-1.54,5.34,29.79,29.79,0,0,0,.11,7.46,37.65,37.65,0,0,0,1.52,6.23c0,.17.11.32.17.48a183.21,183.21,0,0,0-14.53-25.1c7.65-5.41,10.22-10.48,10.34-17.39a19.7,19.7,0,0,0-3.12-12.27c-2-3.29-3.91-4.91-6-8.19-.18-.28-1.49-2.1-2.15.26-2.13,3.82-3.64,5.53-5.22,8.53a19.28,19.28,0,0,0-2.5,10.09,28.62,28.62,0,0,0,1.34,7.27c.43,1.26.9,2.45,1.4,3.56-.9-1.16-1.8-2.33-2.74-3.48a195.53,195.53,0,0,0-14.63-16,25.38,25.38,0,0,0,5.62-8.72,18,18,0,0,0,.49-9.37,23.07,23.07,0,0,0-.74-3.51,18.37,18.37,0,0,0-1.2-2.92,21.76,21.76,0,0,0-3.29-4.68c-1.26-1.32-2.63-2.5-4-3.69l-2.06-1.81a16.26,16.26,0,0,1-1.34-1.17c-.23-.23-1.47-1.37-1.82.5-1.34,4-2.46,6.14-3.43,9.27a19,19,0,0,0-.51,10.07,27.48,27.48,0,0,0,2.65,6.66c.19.35.39.67.58,1a214.72,214.72,0,0,0-18.11-14c4.49-7.34,4.78-12.64,2.45-18.69a19.82,19.82,0,0,0-3.07-5.86,18.88,18.88,0,0,0-4-3.91c-1.46-1.06-3-2-4.53-2.89s-2.48-1.33-4-2.4c-.26-.18-1.5-.88-1.43.82-.59,4.17-1.39,6.55-1.77,9.78a18.47,18.47,0,0,0,1.32,9.88,25,25,0,0,0,3.75,5.9q-9.25-5.62-19.3-10.58c2.11-7,1.2-11.73-2-16.63a19.52,19.52,0,0,0-4.06-4.93,18,18,0,0,0-4.58-2.92c-3.17-1.45-5.23-1.81-8.48-3.18-.28-.12-2-.68-1.75,1.18.23,4.07-.09,6.16.16,9.3a17.82,17.82,0,0,0,3.15,9.13l.24.31c-.75-.31-1.49-.63-2.25-.93l-.24-.07c-3.19-3.38-10-9.61-17.83-10.45-8.88-1.41-12.92,2.55-18.38,5a.9.9,0,0,0-.2,1.51c5.84,4.73,9,8.87,16.13,9.74,7.92.71,12.63-1.61,19.17-3l.24.13c1.07.42,2.1.87,3.16,1.3h-1.09A17.76,17.76,0,0,0,1060,123c-2.56,1.69-4.32,3.46-7.6,5.72-.23.16-1.11,1.21.43,1.77,1.52.88,1.93,1.15,3.35,2.08a41.24,41.24,0,0,0,4.4,2.63,20.08,20.08,0,0,0,5,1.75,18.84,18.84,0,0,0,6.3.06,19.9,19.9,0,0,0,4.42-.88,15.57,15.57,0,0,0,3.93-2,23.07,23.07,0,0,0,6.18-6.88q9.22,4.56,17.77,9.71a25.93,25.93,0,0,0-5.22-.77,18.45,18.45,0,0,0-9.46,2.42c-2.8,1.51-4.76,3.11-8.34,5.14-.25.14-1.77.78.1,1.8a13.51,13.51,0,0,1,1.34,1l2.13,1.63a47.71,47.71,0,0,0,4.32,3.1,20.88,20.88,0,0,0,5.08,2.24,19.07,19.07,0,0,0,6.5.57,17.13,17.13,0,0,0,8.82-2.3,24.29,24.29,0,0,0,7-6.84,206.42,206.42,0,0,1,17.77,13.78c-.3-.14-.6-.29-.91-.42a25.23,25.23,0,0,0-6.87-2,18.83,18.83,0,0,0-10,1.32c-3.06,1.21-5.06,2.54-9,4.19-.29.11-2.13.85,0,2.22a30.32,30.32,0,0,1,2.94,2.82c1.32,1.28,2.65,2.55,4.1,3.7a19.52,19.52,0,0,0,5,2.91,19.3,19.3,0,0,0,3,.94,22.73,22.73,0,0,0,3.57.41c6.43.6,11.5-1.29,17.22-7.63a190.9,190.9,0,0,1,14.19,15.57c.87,1.06,1.69,2.14,2.53,3.21l-.41-.3a28.7,28.7,0,0,0-2.78-1.89,30.74,30.74,0,0,0-3.24-1.67,27.43,27.43,0,0,0-3.64-1.36,20.46,20.46,0,0,0-10.61,0c-3.35.83-5.29,1.84-9.61,3-.31.08-2.92.77-.41,2.72,1.33,1.51,1.23,1.55,2.46,3.08a45.49,45.49,0,0,0,3.78,4.46,22.46,22.46,0,0,0,4.8,3.73,21.69,21.69,0,0,0,6.75,2.28c6.7,1.43,12.17.13,19-5.78a177.51,177.51,0,0,1,13.64,23.42A32.46,32.46,0,0,0,1169,209.6a20.7,20.7,0,0,0-10.73-1.47c-3.5.37-5.62,1.16-10.15,1.71-.32,0-2.82.16-.87,2.52,1.1,1.72,1.17,1.86,2.15,3.6.5.86,1,1.72,1.5,2.57s1.11,1.67,1.71,2.47a20.11,20.11,0,0,0,4.35,4.45,20.65,20.65,0,0,0,6.49,3.25,18.91,18.91,0,0,0,10,1.09,26.82,26.82,0,0,0,9.87-4.32,176.8,176.8,0,0,1,9.38,28.42c-.28-.47-.58-.95-.91-1.45a34.1,34.1,0,0,0-4.12-5.27,30.28,30.28,0,0,0-6-5,20.84,20.84,0,0,0-10.64-3c-3.59-.12-5.91.35-10.56.27-.34,0-2.88-.31-1.23,2.21,1.83,3.77,2.24,6.12,4.24,9.72a25.12,25.12,0,0,0,1.64,2.64,22.23,22.23,0,0,0,2.13,2.48,20.56,20.56,0,0,0,6.11,4.21c6.27,3.38,12.23,3.54,20.74-.52.73,3.66,1.36,7.34,1.86,11a182.14,182.14,0,0,1,1.53,18.55q-.46-1.2-1.11-2.55a33.61,33.61,0,0,0-3.47-6,29.08,29.08,0,0,0-5.44-5.95,21.3,21.3,0,0,0-10.42-4.55c-3.67-.63-5.8-.42-10.53-1.15-.34-.05-3.23-.71-2,1.95a40,40,0,0,1,1.26,4.57,54.4,54.4,0,0,0,1.8,6,22,22,0,0,0,3.12,5.74,20.54,20.54,0,0,0,2.41,2.68,24.12,24.12,0,0,0,3.22,2.47,23.84,23.84,0,0,0,4.71,2.72,18.3,18.3,0,0,0,5.14,1.29,28.34,28.34,0,0,0,11.36-1.56,193.77,193.77,0,0,1-2.38,30.48,35,35,0,0,0-.93-3.46,39.37,39.37,0,0,0-2.74-6.58,30.89,30.89,0,0,0-4.78-6.82,21.93,21.93,0,0,0-10-6c-3.65-1.11-6.21-1.3-11-2.65-.34-.09-3.08-1.64-1.8,1.85a36.91,36.91,0,0,1,.59,4.81c.29,2.13.57,4.24,1,6.35a22.22,22.22,0,0,0,7.48,12.27,20.34,20.34,0,0,0,9.5,5.43,29.06,29.06,0,0,0,11.75,0,208.84,208.84,0,0,1-8.16,30.71c-.1-1.39-.29-3.07-.61-4.93a44.57,44.57,0,0,0-2-7.1,34,34,0,0,0-4-7.57,22.87,22.87,0,0,0-9.56-7.35c-3.59-1.57-6.61-2.19-11.31-4.13-.33-.14-2.36-1.28-1.69,1.49.3,4.5-.11,7.44.37,11.85a26.61,26.61,0,0,0,1.69,6.66,24.61,24.61,0,0,0,4.42,6.76c5,6.05,10.87,8.76,21.3,8.23q-2.89,7.81-6.41,15.49-3.06,6.69-6.6,13.22a44.09,44.09,0,0,0-.07-6,36.6,36.6,0,0,0-4.62-15.68,23.06,23.06,0,0,0-9-8.5c-3.54-2-6.11-2.7-10.73-5.14-.33-.17-2.46-1.95-2.31,1.33,0,4.64-.9,7.37-.78,11.94a23.61,23.61,0,0,0,4.84,14.34,22.15,22.15,0,0,0,8.48,7.87c3.3,1.67,7.36,2.58,12.59,2.86a243.67,243.67,0,0,1-18.7,28.5c.07-.35.13-.74.2-1.16a41.82,41.82,0,0,0,.6-6,37.63,37.63,0,0,0-3-16.59,23.74,23.74,0,0,0-8.33-9.66c-3.39-2.38-6.24-3.57-10.71-6.56-.32-.21-2-2-2.15.87-.63,4.68-1.71,7.83-2.18,12.45a28.16,28.16,0,0,0,.32,7.23,25.11,25.11,0,0,0,3.07,7.94,22.5,22.5,0,0,0,7.77,9c3.24,2.13,7.37,3.55,12.86,4.44a266.53,266.53,0,0,1-21.82,24.77,44.13,44.13,0,0,0,1.31-6.58,39.22,39.22,0,0,0,.29-8.1,33,33,0,0,0-1.78-9.21,24,24,0,0,0-7.65-10.62c-3.27-2.74-5.93-4.08-10.25-7.54-.31-.24-1.9-2.82-2.36.31a51.77,51.77,0,0,1-1.65,5.91c-.64,2.27-1.28,4.53-1.71,6.87a25.52,25.52,0,0,0-.34,7.41,25.11,25.11,0,0,0,2.38,8.39,23.49,23.49,0,0,0,7.07,10c3,2.42,7,4.24,12.22,5.65A284.83,284.83,0,0,1,1100.56,477a53.85,53.85,0,0,0,2-6.78,43.32,43.32,0,0,0,1-8.29,34.29,34.29,0,0,0-1-9.6,24.49,24.49,0,0,0-6.9-11.54c-3.12-3.09-6-4.92-10.15-8.82-.3-.28-1.49-2.41-2.16.31a52.55,52.55,0,0,1-2.16,5.92,63.69,63.69,0,0,0-2.35,6.86,25.37,25.37,0,0,0-1,7.52,27.09,27.09,0,0,0,1.66,8.79c2.49,8.05,7,13.35,17.11,17.33-8.49-1.73-14.51-3.82-21.94-.85-12.42,4.62-19.14,17.87-20,19.62a.21.21,0,0,0,.11.28c1.75.69,14.55,5.42,27,.79,9.75-3.47,13.87-10.87,17.34-16.81a1.71,1.71,0,0,0,.47-.23l.18-.14c5.24,11,11.27,15.42,20,17.15a25.82,25.82,0,0,0,16.21-.87,66.81,66.81,0,0,0,6.56-2.94,48.61,48.61,0,0,1,5.38-2.6c3.44-.88.71-2.1.41-2.36-8.46-7.57-11.5-13.24-21.83-15-9.7-1.5-18.35,1.62-23.14,3.88a288.24,288.24,0,0,0,24.54-21.47c6.89,9.87,13.42,13.15,22.13,13.36a27,27,0,0,0,8.66-.69,25.88,25.88,0,0,0,6.76-2.87c4.13-2.35,6.24-4.77,10.37-7.28,2.93-1.28.55-2.1.21-2.3-4.72-2.89-7.23-5.13-10.93-7.27a23.88,23.88,0,0,0-12.61-3.52c-9.73.21-17.59,4.79-21.73,7.73a268.94,268.94,0,0,0,21.79-24.87.22.22,0,0,0,0,.11c4,4.36,7.71,7.13,11.47,8.68a22.64,22.64,0,0,0,11.81,1.37,25.2,25.2,0,0,0,8.27-1.85,27.41,27.41,0,0,0,6.13-3.71,53,53,0,0,0,5-4.65c1.6-1.62,2.57-2.58,4.32-4.14.3-.26,2.1-1.28-.26-1.95-4.94-2.09-7.92-3.93-11.77-5.45a23.56,23.56,0,0,0-12.67-1.64,30,30,0,0,0-4.55,1.14,34.26,34.26,0,0,0-4.14,1.61,44.3,44.3,0,0,0-12.81,9.32,247,247,0,0,0,19.41-29.54c8.81,7.25,15.46,8.54,23.5,6.51a23.85,23.85,0,0,0,7.71-2.89,23.58,23.58,0,0,0,5.44-4.39c1.54-1.64,2.9-3.4,4.27-5.16a54.64,54.64,0,0,1,3.51-4.54c.27-.3,2.06-1.49-.51-1.9-5.06-1.34-8.11-2.72-12-3.67a23,23,0,0,0-12.38.14,30.64,30.64,0,0,0-8,3.8,36.2,36.2,0,0,0-6,4.75,43.44,43.44,0,0,0-3.58,3.84q3.38-6.3,6.33-12.74,3.59-7.82,6.52-15.77c4.83,2.62,8.89,4,12.67,4.23a21.22,21.22,0,0,0,11-2.33,24.12,24.12,0,0,0,6.86-4.2,25.89,25.89,0,0,0,4.35-5.24,51.55,51.55,0,0,0,3.07-5.77c.94-2,1.34-2.84,2.42-4.8,1.75-2.2-.92-1.92-1.28-2-5.07-.3-7.73-1-11.64-1.16a22.74,22.74,0,0,0-11.81,2.5,29.23,29.23,0,0,0-3.71,2.41,33.07,33.07,0,0,0-3.19,2.7,42.26,42.26,0,0,0-4.81,5.63,37.34,37.34,0,0,0-2.51,4,211.88,211.88,0,0,0,8.28-31.24C1207.74,334.34,1214,332.91,1220.16,328Zm-102.08-139C1107.83,181.41,1102.69,202,1099,208c-.91,1.81-2.35,3.36-2.32,6.1-9.73,14.71-32.92,22.61-38,41.24-6.67-6.81-6.22-2-13.13,4.09-.36.39-18.26,17.28-33.77,19.68-25.49,5.84-27.61-16.66-17.19-34.12,2.38-3.53,5.2-8.33,5.73-12.36.49-1.16,6.38-12.17,7.32-13.87s3.58-8.7,5.39-12.33c2.81-4.78,3.53-22,7.16-23.07,2.49-1,4.13-3.39,5.39-5.61,1.36-2,4.18-3.93,6-5.23,2.64-4.82-4.12-3-5.67-.39-3.73,2.75-1.11-1.9,0-3.08,1.87-1.6,4.51-2.33,6.66-3.41,2.19-.28,7.64-2.88,3.25-4.3-.66,0-4,1.1-3.8.83.92-1.19,4.47-4.43,2.26-5.94-1.62-.06-1.7,1.63-3.58.05-1.6-.1-3.82,4.83-5.39,6-.83,1.23-5.94,4.79-7,6.22-1.28,2.38-3.94,8.73-5.45,11.56a165.74,165.74,0,0,1-19,29.27c-2.62,4.58-1.75,7.26-5.66,11.64,3.51-7.91-2.72-18.86-11.87-20.36-4-1-10.07-3.11-13,.82-8.61,1.79-6.38,8.87-12.19,10.79-1.5.65-4,2.24-1.68,3.79.5.33,1.07.82.9,1.4-.83.91-1.49,2.46-.08,3.26-2,.19-1.3,2-1.48,3.46-.24,1-1.27,2.54-.29,3.46,1.57,1.49,4.33,1.39,6,2.43,5.88,5.16,2.44,14.45.79,20.88-8.82,8.77-8.1,21.64-.89,31.21,8,11.84,12,25.28,15.72,39,4.2,9.93,9.35,20.8,6.33,31.78-4.14,11.44-7.87,9.09,6.08,13.1-3.07,8.84-2,18.49-4.53,27.33-3.75,8.16-8.21,16.09-11.64,24.44-4.5,11.15-14.57,18.64-19,29.86-2.17,5.69-11.35,25.76,1.7,22.6,4.12-4.43,4.11-13.94,10.11-15.57,12.19-1.58,10.52-2.93,7.75-13.18.2-5.5,5.46-9.45,8.81-13.2,6.37-7.12,13-14.49,16.52-23.36,5.18-10.91,3.67-23.58,11.26-33.4,20.87-31.9,29.58-18.06,40-31.19,10.12-16,18.29-14.25,18.54-31.75-2-14.39,10.08-14.9,2.28-31.58,6.4-6.82,9.24-17.35,16-23.67,5.25-6.08,13.25-20.76,18.74-26.7,2.82-2.69,3.7-3.23,6.69-5.78C1110.92,216.35,1124.19,192.24,1118.08,189.05Z"/></svg>